# xmcd
#
# Track frame offsets:
#	150
#	22014
#	39363
#	53675
#	74212
#	88644
#	110778
#	129005
#	147382
#	175149
#	195348
#	218697
#	233616
#	246128
#
# Disc length: 3503 seconds
#
# Revision: 2
# Processed by: cddbd v1.5.2PL0 Copyright (c) Steve Scherf et al.
# Submitted via: audiograbber 1.83.01
#
DISCID=c00dad0e
DTITLE=Riff Raff (Rock) - Leaving D.C.
DYEAR=2012
DGENRE=Rock
TTITLE0=Set Me Off
TTITLE1=Hail The Rockin' Man
TTITLE2=Give'm Rhythm
TTITLE3=Liar
TTITLE4=I'm Not The One
TTITLE5=Good Times - Bad Times
TTITLE6=Rev' Up - Ride On
TTITLE7=One For The Road
TTITLE8=Miracle Man
TTITLE9=We're Only Here For The Beer
TTITLE10=Long Live The Night
TTITLE11=Leaving D.C.
TTITLE12=Dance Or Die
TTITLE13=We Came, We Saw, We Had A Ball
EXTD=
EXTT0=
EXTT1=
EXTT2=
EXTT3=
EXTT4=
EXTT5=
EXTT6=
EXTT7=
EXTT8=
EXTT9=
EXTT10=
EXTT11=
EXTT12=
EXTT13=
PLAYORDER=
